<svg width="75" height="74" viewBox="0 0 75 74" fill="none"
    xmlns="http://www.w3.org/2000/svg">
    <g filter="url(#filter0_d_6343_1189)">
        <rect x="15.423" y="16.9487" width="43.6184" height="41.282" rx="12.2478" fill="#DC2626" fill-opacity="0.24"/>
        <path d="M28.9447 51.7563C27.0697 51.7563 25.4822 51.1306 24.1822 49.8793C22.8822 48.6279 22.2322 47.1168 22.2322 45.3459C22.2322 43.5751 22.8822 42.0758 24.1822 40.848C25.4822 39.6202 27.0697 39.0063 28.9447 39.0063C29.4947 39.0063 30.0259 39.0654 30.5384 39.1834C31.0509 39.3015 31.5322 39.4668 31.9822 39.6793C32.3322 38.9945 32.5197 38.2862 32.5447 37.5543C32.5697 36.8223 32.4322 36.114 32.1322 35.4293C31.6572 35.6654 31.1572 35.8424 30.6322 35.9605C30.1072 36.0786 29.5572 36.1376 28.9822 36.1376C27.1072 36.1376 25.5134 35.5178 24.2009 34.2782C22.8884 33.0386 22.2322 31.5334 22.2322 29.7626C22.2322 27.9918 22.8884 26.4924 24.2009 25.2647C25.5134 24.0369 27.1072 23.423 28.9822 23.423C30.8572 23.423 32.4509 24.0369 33.7634 25.2647C35.0759 26.4924 35.7322 27.9918 35.7322 29.7626C35.7322 30.3056 35.6634 30.8251 35.5259 31.3209C35.3884 31.8168 35.1947 32.289 34.9447 32.7376C35.6697 33.0209 36.4197 33.1567 37.1947 33.1449C37.9697 33.1331 38.7197 32.9619 39.4447 32.6313C39.2197 32.2063 39.0447 31.7518 38.9197 31.2678C38.7947 30.7838 38.7322 30.282 38.7322 29.7626C38.7322 27.9918 39.3822 26.4924 40.6822 25.2647C41.9822 24.0369 43.5697 23.423 45.4447 23.423C47.3197 23.423 48.9197 24.0369 50.2447 25.2647C51.5697 26.4924 52.2322 27.9918 52.2322 29.7626C52.2322 31.5334 51.5697 33.0445 50.2447 34.2959C48.9197 35.5473 47.3197 36.173 45.4447 36.173C44.8447 36.173 44.2759 36.1022 43.7384 35.9605C43.2009 35.8188 42.6822 35.6181 42.1822 35.3584C41.8572 36.0668 41.7072 36.7928 41.7322 37.5365C41.7572 38.2803 41.9447 39.0181 42.2947 39.7501C42.7697 39.514 43.2697 39.331 43.7947 39.2011C44.3197 39.0713 44.8697 39.0063 45.4447 39.0063C47.3197 39.0063 48.9197 39.6202 50.2447 40.848C51.5697 42.0758 52.2322 43.5751 52.2322 45.3459C52.2322 47.1168 51.5697 48.6279 50.2447 49.8793C48.9197 51.1306 47.3197 51.7563 45.4447 51.7563C43.5697 51.7563 41.9822 51.1306 40.6822 49.8793C39.3822 48.6279 38.7322 47.1168 38.7322 45.3459C38.7322 44.8029 38.8009 44.2834 38.9384 43.7876C39.0759 43.2918 39.2697 42.8195 39.5197 42.3709C38.7447 42.0404 37.9634 41.8574 37.1759 41.822C36.3884 41.7865 35.6197 41.9223 34.8697 42.2293C35.1447 42.7015 35.3572 43.1973 35.5072 43.7168C35.6572 44.2362 35.7322 44.7793 35.7322 45.3459C35.7322 47.1168 35.0697 48.6279 33.7447 49.8793C32.4197 51.1306 30.8197 51.7563 28.9447 51.7563ZM45.4447 33.3397C46.4947 33.3397 47.3884 32.9914 48.1259 32.2949C48.8634 31.5984 49.2322 30.7543 49.2322 29.7626C49.2322 28.7709 48.8634 27.9386 48.1259 27.2657C47.3884 26.5928 46.4947 26.2563 45.4447 26.2563C44.3947 26.2563 43.5134 26.5928 42.8009 27.2657C42.0884 27.9386 41.7322 28.7709 41.7322 29.7626C41.7322 29.9515 41.7509 30.1463 41.7884 30.347C41.8259 30.5477 41.8697 30.7424 41.9197 30.9313L44.1697 28.8063C44.4697 28.523 44.8197 28.3813 45.2197 28.3813C45.6197 28.3813 45.9697 28.523 46.2697 28.8063C46.5697 29.0897 46.7197 29.4202 46.7197 29.798C46.7197 30.1758 46.5697 30.5063 46.2697 30.7897L43.9447 33.0209C44.1697 33.139 44.4072 33.2216 44.6572 33.2688C44.9072 33.3161 45.1697 33.3397 45.4447 33.3397ZM28.9822 33.3043C29.2322 33.3043 29.4697 33.2806 29.6947 33.2334C29.9197 33.1862 30.1322 33.1272 30.3322 33.0563L27.9322 30.7897C27.6322 30.5063 27.4822 30.1758 27.4822 29.798C27.4822 29.4202 27.6322 29.0897 27.9322 28.8063C28.2322 28.523 28.5822 28.3813 28.9822 28.3813C29.3822 28.3813 29.7322 28.523 30.0322 28.8063L32.4697 31.073C32.5447 30.8841 32.6072 30.6775 32.6572 30.4532C32.7072 30.2289 32.7322 29.9987 32.7322 29.7626C32.7322 28.7709 32.3697 27.9327 31.6447 27.248C30.9197 26.5633 30.0322 26.2209 28.9822 26.2209C27.9322 26.2209 27.0447 26.5633 26.3197 27.248C25.5947 27.9327 25.2322 28.7709 25.2322 29.7626C25.2322 30.7543 25.5947 31.5924 26.3197 32.2772C27.0447 32.9619 27.9322 33.3043 28.9822 33.3043ZM45.4447 48.923C46.4947 48.923 47.3884 48.5747 48.1259 47.8782C48.8634 47.1817 49.2322 46.3376 49.2322 45.3459C49.2322 44.3543 48.8634 43.522 48.1259 42.849C47.3884 42.1761 46.4947 41.8397 45.4447 41.8397C45.1947 41.8397 44.9572 41.8574 44.7322 41.8928C44.5072 41.9282 44.2947 41.9813 44.0947 42.0522L46.5697 44.3897C46.8697 44.673 47.0197 45.0036 47.0197 45.3813C47.0197 45.7591 46.8697 46.0897 46.5697 46.373C46.2447 46.6563 45.8822 46.798 45.4822 46.798C45.0822 46.798 44.7322 46.6563 44.4322 46.373L41.9947 44.0709C41.9197 44.2598 41.8572 44.4605 41.8072 44.673C41.7572 44.8855 41.7322 45.1098 41.7322 45.3459C41.7322 46.3376 42.0884 47.1817 42.8009 47.8782C43.5134 48.5747 44.3947 48.923 45.4447 48.923ZM28.9447 48.923C29.9947 48.923 30.8884 48.5747 31.6259 47.8782C32.3634 47.1817 32.7322 46.3376 32.7322 45.3459C32.7322 45.0862 32.7072 44.8324 32.6572 44.5845C32.6072 44.3365 32.5197 44.1063 32.3947 43.8938L29.7697 46.373C29.4697 46.6563 29.1134 46.798 28.7009 46.798C28.2884 46.798 27.9322 46.6563 27.6322 46.373C27.3322 46.0897 27.1822 45.7591 27.1822 45.3813C27.1822 45.0036 27.3322 44.673 27.6322 44.3897L30.1447 42.0168C29.9447 41.9695 29.7447 41.9282 29.5447 41.8928C29.3447 41.8574 29.1447 41.8397 28.9447 41.8397C27.8947 41.8397 27.0134 42.1761 26.3009 42.849C25.5884 43.522 25.2322 44.3543 25.2322 45.3459C25.2322 46.3376 25.5884 47.1817 26.3009 47.8782C27.0134 48.5747 27.8947 48.923 28.9447 48.923Z" fill="#DA3E3F"/>
        <path d="M46.3198 11.7885H61.1458C61.9913 11.7885 62.6767 12.4739 62.6767 13.3195V25.5492" stroke="#DA3E3F" stroke-width="1.83717"/>
        <path d="M28.1454 11.7885H13.3195C12.474 11.7885 11.7885 12.4739 11.7885 13.3195V25.5492" stroke="#DA3E3F" stroke-width="1.83717"/>
        <path d="M28.1454 61.6711H13.3195C12.474 61.6711 11.7885 60.9856 11.7885 60.1401V47.9104" stroke="#DA3E3F" stroke-width="1.83717"/>
        <path d="M46.3198 61.6711H61.1458C61.9913 61.6711 62.6767 60.9856 62.6767 60.1401V47.9104" stroke="#DA3E3F" stroke-width="1.83717"/>
    </g>
    <defs>
        <filter id="filter0_d_6343_1189" x="1.81198e-05" y="-1.23978e-05" width="74.4652" height="73.4596" filterUnits="userSpaceOnUse" color-interpolation-filters="sRGB">
            <feFlood flood-opacity="0" result="BackgroundImageFix"/>
            <feColorMatrix in="SourceAlpha" type="matrix" values="0 0 0 0 0 0 0 0 0 0 0 0 0 0 0 0 0 0 127 0" result="hardAlpha"/>
            <feOffset/>
            <feGaussianBlur stdDeviation="5.43496"/>
            <feComposite in2="hardAlpha" operator="out"/>
            <feColorMatrix type="matrix" values="0 0 0 0 0.862745 0 0 0 0 0.14902 0 0 0 0 0.14902 0 0 0 0.28 0"/>
            <feBlend mode="normal" in2="BackgroundImageFix" result="effect1_dropShadow_6343_1189"/>
            <feBlend mode="normal" in="SourceGraphic" in2="effect1_dropShadow_6343_1189" result="shape"/>
        </filter>
    </defs>
</svg>
